v -0.5 -0.5 -0.5
v  0.5 -0.5 -0.5
v  0.5  0.5 -0.5
v -0.5  0.5 -0.5
v -0.5 -0.5  0.5
v  0.5 -0.5  0.5
v  0.5  0.5  0.5
v -0.5  0.5  0.5

vt 0.0 0.0
vt 1.0 0.0
vt 1.0 1.0
vt 0.0 1.0

vn  0.0  0.0 -1.0
vn  0.0  0.0 -1.0
vn  0.0  0.0  1.0
vn  0.0  0.0  1.0
vn -1.0  0.0  0.0
vn -1.0  0.0  0.0
vn  1.0  0.0  0.0
vn  1.0  0.0  0.0
vn  0.0  1.0  0.0
vn  0.0  1.0  0.0
vn  0.0 -1.0  0.0
vn  0.0 -1.0  0.0

f 3/3/1 2/2/1 1/1/1
f 4/4/2 3/3/2 1/1/2
f 6/3/3 7/2/3 8/1/3
f 5/4/4 6/3/4 8/1/4
f 4/3/5 1/2/5 5/1/5
f 8/4/6 4/3/6 5/1/6
f 7/3/7 6/2/7 2/1/7
f 3/4/8 7/3/8 2/1/8
f 7/3/9 3/2/9 4/1/9
f 8/4/10 7/3/10 4/1/10
f 2/3/11 6/2/11 5/1/11
f 1/4/12 2/3/12 5/1/12
